<?xml version="1.0" standalone="no"?><!DOCTYPE svg PUBLIC "-//W3C//DTD SVG 1.1//EN" "http://www.w3.org/Graphics/SVG/1.1/DTD/svg11.dtd"><svg class="icon" width="128px" height="128.00px" viewBox="0 0 1024 1024" version="1.1" xmlns="http://www.w3.org/2000/svg"><path fill="#000000" d="M975.104 441.770667a21.248 21.248 0 0 1-15.104 6.229333 64 64 0 0 0 0 128 21.333333 21.333333 0 0 1 21.333333 21.333333v175.701334c0 54.442667-64.512 101.632-143.232 101.632H186.88c-78.677333 0-143.232-47.189333-143.232-101.632v-174.762667V597.333333a21.333333 21.333333 0 0 1 21.333333-21.333333 64 64 0 0 0 0-128 21.333333 21.333333 0 0 1-21.333333-22.272V291.157333C43.605333 205.226667 100.565333 149.333333 186.837333 149.333333h651.264C924.288 149.333333 981.333333 205.312 981.333333 291.157333V426.666667a21.248 21.248 0 0 1-6.229333 15.104zM938.666667 407.466667V291.157333c0-62.08-37.76-99.157333-100.565334-99.157333H186.88c-62.890667 0-100.565333 36.992-100.565333 99.157333V407.466667a106.666667 106.666667 0 0 1 0 209.066666v156.501334c0 27.477333 43.093333 58.965333 100.565333 58.965333h651.264c57.557333 0 100.565333-31.488 100.565333-58.965333V616.533333a106.666667 106.666667 0 0 1 0-209.066666z"  /><path fill="#000000" d="M555.008 597.333333H704a21.333333 21.333333 0 1 1 0 42.666667h-148.992v64a21.333333 21.333333 0 1 1-42.666667 0V640H405.333333a21.333333 21.333333 0 1 1 0-42.666667h107.008v-85.333333H405.333333a21.333333 21.333333 0 0 1 0-42.666667h78.933334L370.901333 346.581333a21.333333 21.333333 0 1 1 31.36-28.928l131.072 141.994667 131.2-142.08a21.333333 21.333333 0 1 1 31.317334 29.013333L582.485333 469.333333H704a21.333333 21.333333 0 1 1 0 42.666667h-148.992v85.333333z"  /></svg>