<?xml version="1.0" standalone="no"?><!DOCTYPE svg PUBLIC "-//W3C//DTD SVG 1.1//EN" "http://www.w3.org/Graphics/SVG/1.1/DTD/svg11.dtd"><svg class="icon" width="128px" height="128.00px" viewBox="0 0 1024 1024" version="1.1" xmlns="http://www.w3.org/2000/svg"><path fill="#000000" d="M180.42119141 296.05309245A106.57880859 106.57880859 0 0 0 73.84238281 402.63277995v213.15761719a106.57880859 106.57880859 0 1 0 213.15761719 0V402.63277995a106.57880859 106.57880859 0 0 0-106.57880859-106.5796875z m0 71.05341797a35.52626953 35.52626953 0 0 1 35.52539062 35.52539062v213.1584961a35.52626953 35.52626953 0 0 1-71.05166015 0V402.63277995a35.52626953 35.52626953 0 0 1 35.52539062-35.52626953z m663.15761718-71.05341797A106.57880859 106.57880859 0 0 0 737 402.63277995v213.15761719a106.57880859 106.57880859 0 1 0 213.15761719 0V402.63277995a106.57880859 106.57880859 0 0 0-106.5788086-106.5796875z m0 71.05341797a35.52626953 35.52626953 0 0 1 35.52626953 35.52539062v213.1584961a35.52626953 35.52626953 0 0 1-71.05253906 0V402.63277995a35.52626953 35.52626953 0 0 1 35.52626953-35.52626953z"  /><path fill="#000000" d="M512 59.21158854c161.05253906 0 292.09746094 128.60507813 295.95761719 288.73388672l0.09492187 7.31865235V614.48697917c0 121.95-86.73134766 226.65761719-206.52539062 249.34746094a35.52626953 35.52626953 0 1 1-13.26357422-69.79746094 182.74746094 182.74746094 0 0 0 148.64150391-173.58134766l0.09492187-5.96865234V355.26236979a225 225 0 0 0-449.90507812-6.39404296l-0.09492188 6.39492187V577.32682292a35.52626953 35.52626953 0 0 1-70.88642578 3.43476562l-0.16699219-3.43476562V355.26412761C215.94746094 191.74801433 348.48476563 59.21158854 512 59.21158854z"  /><path fill="#000000" d="M606.73730469 544.73697917a23.68388672 23.68388672 0 0 1 23.68388672 23.68476563 118.42119141 118.42119141 0 0 1-236.84238282-1e-8 23.68388672 23.68388672 0 0 1 47.36865235 0 71.05253906 71.05253906 0 0 0 141.98730469 4.16865235l0.11777343-4.16865235a23.68388672 23.68388672 0 0 1 23.68388672-23.68388671z m-82.89492188 213.15849609a82.89492187 82.89492187 0 1 1 0 165.78984375 82.89492187 82.89492187 0 0 1 0-165.78984375z m0 47.36865235a35.52626953 35.52626953 0 1 0 0 71.05253906 35.52626953 35.52626953 0 0 0 0-71.05253906z"  /></svg>