<?xml version="1.0" standalone="no"?><!DOCTYPE svg PUBLIC "-//W3C//DTD SVG 1.1//EN" "http://www.w3.org/Graphics/SVG/1.1/DTD/svg11.dtd"><svg class="icon" width="128px" height="128.00px" viewBox="0 0 1024 1024" version="1.1" xmlns="http://www.w3.org/2000/svg"><path fill="#000000" d="M614.4 554.666667c-34.133333 25.6-76.8 38.4-123.733333 38.4s-85.333333-12.8-123.733334-38.4c0 4.266667-4.266667 4.266667-8.533333 4.266666-89.6 46.933333-149.333333 140.8-149.333333 247.466667 0 12.8-8.533333 21.333333-21.333334 21.333333s-21.333333-8.533333-21.333333-21.333333c0-119.466667 64-226.133333 166.4-281.6-34.133333-38.4-59.733333-89.6-59.733333-145.066667 0-119.466667 93.866667-213.333333 213.333333-213.333333s213.333333 93.866667 213.333333 213.333333c0 55.466667-21.333333 106.666667-59.733333 145.066667 42.666667 25.6 81.066667 55.466667 106.666667 98.133333 8.533333 8.533333 4.266667 21.333333-4.266667 29.866667-8.533333 8.533333-21.333333 4.266667-29.866667-4.266667-25.6-38.4-59.733333-68.266667-98.133333-89.6 4.266667 0 4.266667-4.266667 0-4.266666z m34.133333 251.733333l166.4-166.4c8.533333-8.533333 21.333333-8.533333 29.866667 0 8.533333 8.533333 8.533333 21.333333 0 29.866667L661.333333 853.333333c-8.533333 8.533333-21.333333 8.533333-29.866666 0l-89.6-89.6c-8.533333-8.533333-8.533333-21.333333 0-29.866666 8.533333-8.533333 21.333333-8.533333 29.866666 0l76.8 72.533333z m-153.6-256c93.866667 0 170.666667-76.8 170.666667-170.666667s-76.8-170.666667-170.666667-170.666666-170.666667 76.8-170.666666 170.666666 76.8 170.666667 170.666666 170.666667z" /></svg>