<?xml version="1.0" standalone="no"?><!DOCTYPE svg PUBLIC "-//W3C//DTD SVG 1.1//EN" "http://www.w3.org/Graphics/SVG/1.1/DTD/svg11.dtd"><svg class="icon" width="128px" height="128.00px" viewBox="0 0 1024 1024" version="1.1" xmlns="http://www.w3.org/2000/svg"><path fill="#000000" d="M88 284a32 32 0 0 1 32-32h784a32 32 0 0 1 32 32v536a96 96 0 0 1-96 96h-656a96 96 0 0 1-96-96v-536z m64 32v504a32 32 0 0 0 32 32h656a32 32 0 0 0 32-32v-504h-720zM155.808 160.224A98.048 98.048 0 0 1 240.288 112h543.424a98.048 98.048 0 0 1 84.48 48.224l-27.568 16.256 27.568-16.256 63.36 107.52A32 32 0 0 1 904 316h-784a32 32 0 0 1-27.568-48.256l63.376-107.52z m84.48 15.776c-12.096 0-23.248 6.384-29.344 16.736l-34.928 59.264h671.968l-34.928-59.264A34.048 34.048 0 0 0 783.712 176H240.288zM792.64 529.376a32 32 0 0 1 0 45.248L585.2 782.048a64 64 0 0 1-90.512 0l-85.328-85.328a32 32 0 1 1 45.248-45.264l85.328 85.328 207.424-207.408a32 32 0 0 1 45.248 0zM212 420a32 32 0 0 1 32-32h378a32 32 0 1 1 0 64H244a32 32 0 0 1-32-32z m0 148a32 32 0 0 1 32-32h242a32 32 0 1 1 0 64H244a32 32 0 0 1-32-32z" /></svg>