<?xml version="1.0" standalone="no"?><!DOCTYPE svg PUBLIC "-//W3C//DTD SVG 1.1//EN" "http://www.w3.org/Graphics/SVG/1.1/DTD/svg11.dtd"><svg class="icon" width="128px" height="118.72px" viewBox="0 0 1104 1024" version="1.1" xmlns="http://www.w3.org/2000/svg"><path fill="#000000" d="M1010.34 807.281L627.513 109.219c-14.088-25.677-35.883-40.387-59.811-40.387-23.919 0-45.743 14.709-59.822 40.366L352.372 392.085H176.515a65.25 65.25 0 0 0-65.057 65.057v390.342a65.25 65.25 0 0 0 65.057 65.057h390.342a64.722 64.722 0 0 0 6.76-0.356 31.675 31.675 0 0 0 4.422 0.305h370.013c28.838 0 52.442-11.923 64.752-32.711s11.405-47.207-2.46-72.498zM176.627 457.142h390.119l0.112 0.112v99.506H176.515v-99.506a1.159 1.159 0 0 1 0.112-0.112z m-0.112 164.676h390.342v65.057H176.515z m0 225.555v-95.441h390.342v95.441l-0.112 0.112H176.627z m771.537 0.112H631.915V457.143a65.25 65.25 0 0 0-65.057-65.057h-140.28l138.298-251.588a34.745 34.745 0 0 1 2.795-4.361 35.517 35.517 0 0 1 2.796 4.36l382.84 698.074a24.488 24.488 0 0 1 2.97 7.746 24.6 24.6 0 0 1-8.225 1.169z" /></svg>