<?xml version="1.0" standalone="no"?><!DOCTYPE svg PUBLIC "-//W3C//DTD SVG 1.1//EN" "http://www.w3.org/Graphics/SVG/1.1/DTD/svg11.dtd"><svg t="1604288486814" class="icon" viewBox="0 0 1024 1024" version="1.1" xmlns="http://www.w3.org/2000/svg" p-id="3387" xmlns:xlink="http://www.w3.org/1999/xlink" width="48" height="48"><defs><style type="text/css"></style></defs><path d="M735.9 510.7c-12.4 0-24.8 1-37 3.1-2.1-1.9-4.5-3.5-7-4.7-1.2-0.6-2.3-1.1-3.5-1.7-10-4.7-20.3-8.7-30.9-11.9-8.7-2.6-17.6-4.7-26.6-6.2-11.9-2-23.9-3-35.9-3h-45c-11.7 0-22.9 4.9-30.8 13.5l-73.8 79.5-73.3-79.4c-8-8.6-19.2-13.6-30.9-13.6h-45.1c-62.2 0-120.8 26.2-164.8 73.9-43.4 47-67.3 109-67.3 174.7v52.9c0 77.4 59.2 140.3 132 140.3l410.4 0.1c3.8 0 7.5-0.7 11-2C653 948.3 694 960.1 735.9 960 859.7 960 960 859.4 960 735.3S859.7 510.7 735.9 510.7z m-540 353.2c-37.4 0.1-67.9-34.1-67.9-76.1v-52.9c0-101.7 75.4-184.5 168-184.5h35.6l82.8 89.8c8 8.6 19.1 13.5 30.9 13.6 11.7 0 22.9-4.9 30.8-13.5l83.3-89.9h35.3c4.3 0 8.7 0.2 13 0.6-48.8 34.1-82.2 86.2-92.7 144.9-10.3 58.7 3 119.1 37 168.1l-356.1-0.1z m663.1-5.1c-62.3 62.4-161.3 68.4-230.6 13.9-1.2-1.1-2.5-2.2-3.8-3.1-4.1-3.4-8-7-11.9-10.9-42.6-42.8-60.1-104.6-46.3-163.4 13.8-58.8 57-106.3 114.2-125.6 4.1-0.4 8-1.6 11.7-3.4 14.2-3.6 28.9-5.5 43.5-5.5 70.4 0 133.9 42.5 160.9 107.7 27 65.3 12.1 140.4-37.7 190.3zM447.2 463c109.9 0 199.1-89.3 199.1-199.5C646.2 153.3 557.1 64 447.2 64s-199.1 89.3-199.1 199.5S337.2 463 447.2 463z m-95.5-295.2c45.6-45.7 116.9-52.7 170.5-16.8 53.6 35.9 74.4 104.7 49.7 164.3-24.6 59.7-87.9 93.6-151.1 81-63.2-12.6-108.7-68.2-108.7-132.8 0-35.9 14.2-70.4 39.6-95.7z m475.8 531.7h31.7v-36.2h-31.7v-47.2h-36.9v47.2h-30.2v-46.7h-36.9v46.7h-26v36.2h26v45.1h-32.2v37H861v-37h-33.5v-45.1z m-36.9 45.1h-30.2v-45.1h30.2v45.1z m-106.9 93.1c8.3 5.2 22.6 16.9 29.4 23.7 18.7-14.3 40.3-37.5 53.6-60.5l-35.4-11.2c-10.4 18-28.9 36.5-47.6 48z m-16.4-222.4c-12.5 36-34.1 72-56.4 94.6 6.2 9.4 16.4 30.5 19.8 39.9 3.6-3.9 7.5-8.3 11.2-13v125.7H679v-183c9-17.1 17-34.8 23.9-52.9l-35.6-11.3z m119.9 190.6c15.6 16.9 33.6 40.7 41.4 56l31.7-20.1c-9.1-14.9-26.5-36.5-42.9-52.7l-30.2 16.8z" fill="#2c2c2c" p-id="3388"></path></svg>