<?xml version="1.0" standalone="no"?><!DOCTYPE svg PUBLIC "-//W3C//DTD SVG 1.1//EN" "http://www.w3.org/Graphics/SVG/1.1/DTD/svg11.dtd"><svg t="1604287002957" class="icon" viewBox="0 0 1024 1024" version="1.1" xmlns="http://www.w3.org/2000/svg" p-id="4137" xmlns:xlink="http://www.w3.org/1999/xlink" width="48" height="48"><defs><style type="text/css"></style></defs><path d="M283.904 208.064a224.192 224.192 0 0 1 250.24-121.344c102.336 24.064 174.4 113.792 174.4 217.408a224.96 224.96 0 0 1-83.456 174.4 359.168 359.168 0 0 1 115.008 55.616c1.28 1.28 1.28 3.776 1.28 5.056 0 1.28-2.56 2.496-3.84 2.496H622.656a63.424 63.424 0 0 1-15.168-2.56 357.568 357.568 0 0 0-89.728-12.608h-63.168a320.384 320.384 0 0 0-318.464 318.464c0 8.832 2.496 16.448 8.832 22.784a36.352 36.352 0 0 0 22.72 8.832h377.856c2.56 0 5.12 1.28 6.336 5.056 2.56 1.28 3.84 5.056 3.84 7.552v40.448a11.328 11.328 0 0 1-11.392 11.392H167.616c-53.12-1.28-96-43.008-96-96 0-169.408 112.448-318.528 275.456-366.528a222.592 222.592 0 0 1-63.168-270.464z m559.808 386.688c7.616 0 13.952 3.84 17.728 10.112l84.672 152.96c3.84 5.056 3.84 12.608 0 18.944l-84.672 152.96a20.16 20.16 0 0 1-17.728 10.048h-169.344a20.16 20.16 0 0 1-17.664-10.112l-84.672-152.96c-3.84-4.992-3.84-12.608 0-18.88l84.672-152.96a20.16 20.16 0 0 1 17.664-10.112z m-17.664 50.56h-133.952L623.872 768l68.224 122.56h133.952l68.224-122.56-68.224-122.624z m-67.008 41.728c45.504 0 80.896 36.608 80.896 80.896 0 44.16-36.672 80.832-80.896 80.832A81.472 81.472 0 0 1 678.208 768c0-44.288 36.608-80.896 80.832-80.896zM469.76 561.92a30.848 30.848 0 0 1 32.832 0 33.792 33.792 0 0 1 15.168 29.056 32.96 32.96 0 0 1-12.672 25.28l43.008 151.68a29.44 29.44 0 0 1-7.616 30.336l-42.944 42.88c-2.56 3.84-7.616 5.12-11.392 5.12a16 16 0 0 1-11.328-5.12l-43.008-42.88a28.224 28.224 0 0 1-7.552-30.336l42.944-151.68a32.96 32.96 0 0 1-12.608-25.28 29.952 29.952 0 0 1 15.168-29.056z m289.344 174.4c-16.384 0-30.336 13.888-31.552 31.616 0 17.664 13.888 31.552 31.552 31.552a31.296 31.296 0 0 0 31.616-31.552 31.296 31.296 0 0 0-31.616-31.616zM484.8 144.896a158.592 158.592 0 0 0-159.232 159.232c1.28 87.168 72.064 159.232 159.232 159.232a158.592 158.592 0 0 0 159.232-159.232 158.592 158.592 0 0 0-159.232-159.232z" p-id="4138"></path></svg>